<svg width="20" height="24" viewBox="0 0 20 24" fill="none" xmlns="http://www.w3.org/2000/svg">
<path d="M10 4C14.4183 4 18 7.58172 18 12C18 16.4183 14.4183 20 10 20C5.58172 20 2 16.4183 2 12C2 7.58172 5.58172 4 10 4ZM10 5C6.13401 5 3 8.13401 3 12C3 15.866 6.13401 19 10 19C13.866 19 17 15.866 17 12C17 8.13401 13.866 5 10 5ZM13.3584 9.64645C13.532 9.82001 13.5513 10.0894 13.4163 10.2843L13.3584 10.3536L9.35355 14.3584C9.17999 14.532 8.91056 14.5513 8.71569 14.4163L8.64645 14.3584L6.64645 12.3584C6.45118 12.1632 6.45118 11.8466 6.64645 11.6513C6.82001 11.4777 7.08944 11.4585 7.28431 11.5935L7.35355 11.6513L9 13.298L12.6513 9.64645C12.8466 9.45118 13.1632 9.45118 13.3584 9.64645Z" fill="#062A1B"/>
</svg>
