<?xml version="1.0" encoding="UTF-8"?>
<svg width="134px" height="47px" viewBox="0 0 134 47" version="1.1" xmlns="http://www.w3.org/2000/svg" xmlns:xlink="http://www.w3.org/1999/xlink">
    <title>logo-swan</title>
    <g id="logo-swan" stroke="none" stroke-width="1" fill="none" fill-rule="evenodd">
        <g fill="#13191A" fill-rule="nonzero" id="Shape">
            <path d="M122.03,0 C128.607,0 133,4.827 133,11.47 L133,29.3 L127.7,29.3 L127.7,11.732 C127.7,7.878 124.706,5.172 121.02,5.172 C116.971,5.172 113.897,8.238 113.897,12.363 L113.897,29.3 L108.4,29.3 L108.4,0.8 L113.897,0.8 L113.897,3.58 C115.61,1.405 118.55,0 122.03,0 Z M91.305,29.192 L86.594,29.192 C78.648,29.192 73,22.367 73,14.602 C73,6.843 79.062,0 87.324,0 C96.089,0 102.1,5.22 102.1,13.348 L102.1,29.298 L96.97,29.298 L96.97,13.348 C96.97,8.186 93.394,5.08 87.324,5.08 C82.055,5.08 78.13,9.511 78.13,14.603 C78.13,19.759 81.731,24.112 86.594,24.112 L91.305,24.112 L91.305,29.192 L91.305,29.192 Z M48.198,8.181 L41.448,29.3 L35.136,29.3 L26.2,0.8 L32.08,0.8 L38.42,22.294 L45.362,0.8 L51.038,0.8 L57.93,22.294 L64.319,0.8 L70.2,0.8 L61.209,29.3 L54.896,29.3 L48.198,8.181 Z M11.431,30 C4.814,30 0.595,26.45 0.066,20.792 L0,20.092 L5.353,20.092 L5.433,20.641 C5.863,23.577 7.926,25.089 11.643,25.089 C15.317,25.089 17.423,23.448 17.423,20.943 C17.423,18.494 15.892,17.657 10.975,16.677 C9.788,16.44 10.02,16.487 9.681,16.417 C3.618,15.16 0.912,13.244 0.912,8.267 C0.912,3.313 5.331,0 11.538,0 C17.167,0 21.508,3.356 21.948,8.476 L22.008,9.172 L16.712,9.172 L16.632,8.622 C16.289,6.241 14.47,4.859 11.272,4.859 C8.188,4.859 6.237,6.273 6.237,8.268 C6.237,10.315 7.65,11.045 12.187,11.89 C13.747,12.18 13.522,12.138 14.002,12.235 C19.975,13.439 22.8,15.543 22.8,20.733 C22.8,26.28 18.18,30 11.431,30 Z"></path>
        </g>
        <g id="DOCUMENTATION" transform="translate(1.1974, 34.9418)" fill="#000000" fill-rule="nonzero">
            <path d="M3.5326871,11.0582386 L2.84217094e-14,11.0582386 L2.84217094e-14,0.149147727 L3.64346591,0.149147727 C4.71452193,0.149147727 5.63303167,0.36665483 6.39899514,0.801669034 C7.16495861,1.23668324 7.75301847,1.86026833 8.16317472,2.67242432 C8.57333097,3.4845803 8.77840909,4.45598256 8.77840909,5.58663108 C8.77840909,6.72299472 8.57209639,7.70009821 8.15947099,8.51794156 C7.74684559,9.33578491 7.14954723,9.9636286 6.36757591,10.4014726 C5.58560458,10.8393166 4.64064165,11.0582386 3.5326871,11.0582386 Z M1.64919767,9.61786444 L3.44321511,9.61786444 C4.27273837,9.61786444 4.9628934,9.46126764 5.5136802,9.14807406 C6.064467,8.83488048 6.47639881,8.37855946 6.74947565,7.779111 C7.02255249,7.17966253 7.15909091,6.44883589 7.15909091,5.58663108 C7.15909091,4.73008589 7.02362061,4.00423917 6.75268,3.40909091 C6.48173939,2.81394265 6.07833862,2.36189409 5.54247769,2.05294522 C5.00661677,1.74399636 4.34095903,1.58952193 3.54550448,1.58952193 L1.64919767,1.58952193 L1.64919767,9.61786444 Z" id="Shape"></path>
            <path d="M20.5011556,5.60369318 C20.5011556,6.76702326 20.2877268,7.76719527 19.8608691,8.60420921 C19.4340114,9.44122314 18.8505569,10.0843395 18.1105056,10.5335582 C17.3704544,10.982777 16.5295425,11.2073864 15.58777,11.2073864 C14.6446104,11.2073864 13.8031853,10.9824163 13.0634947,10.5324763 C12.3238041,10.0825362 11.7407103,9.43907304 11.3142132,8.60208685 C10.8877162,7.76510065 10.6744677,6.7656361 10.6744677,5.60369318 C10.6744677,4.4403631 10.8877162,3.4401911 11.3142132,2.60317716 C11.7407103,1.76616322 12.3238041,1.12304688 13.0634947,0.673828125 C13.8031853,0.224609375 14.6446104,0 15.58777,0 C16.5295425,0 17.3704544,0.224609375 18.1105056,0.673828125 C18.8505569,1.12304688 19.4340114,1.76616322 19.8608691,2.60317716 C20.2877268,3.4401911 20.5011556,4.4403631 20.5011556,5.60369318 Z M18.86902,5.60369318 C18.86902,4.71735174 18.7260868,3.96931041 18.4402203,3.3595692 C18.1543539,2.74982799 17.7640895,2.28818026 17.2694273,1.97462602 C16.7747651,1.66107178 16.2142127,1.50429466 15.58777,1.50429466 C14.9613829,1.50429466 14.4008582,1.66107178 13.906196,1.97462602 C13.4115338,2.28818026 13.0212695,2.74982799 12.735403,3.3595692 C12.4495365,3.96931041 12.3066033,4.71735174 12.3066033,5.60369318 C12.3066033,6.49003462 12.4495365,7.23807595 12.735403,7.84781716 C13.0212695,8.45755837 13.4115338,8.9192061 13.906196,9.23276034 C14.4008582,9.54631459 14.9613829,9.70309171 15.58777,9.70309171 C16.2142127,9.70309171 16.7747651,9.54631459 17.2694273,9.23276034 C17.7640895,8.9192061 18.1543539,8.45755837 18.4402203,7.84781716 C18.7260868,7.23807595 18.86902,6.49003462 18.86902,5.60369318 Z" id="Shape"></path>
            <path d="M31.8063254,3.69456898 L30.1485551,3.69456898 C30.0818048,3.34089799 29.9619678,3.02877253 29.7890442,2.75819258 C29.6161205,2.48761264 29.4037736,2.25874467 29.1520036,2.07158869 C28.9002336,1.88443271 28.6184453,1.7430947 28.3066389,1.64757468 C27.9948325,1.55205467 27.6656449,1.50429466 27.3190762,1.50429466 C26.6912464,1.50429466 26.1292791,1.66195956 25.6331742,1.97728937 C25.1370694,2.29261919 24.7457369,2.75532116 24.4591769,3.36539529 C24.1726168,3.97546942 24.0293368,4.72156871 24.0293368,5.60369318 C24.0293368,6.49291992 24.1729775,7.24239003 24.4602589,7.85210349 C24.7475402,8.46181696 25.1390392,8.92274336 25.6347556,9.2348827 C26.130472,9.54702204 26.6904973,9.70309171 27.3148315,9.70309171 C27.6592917,9.70309171 27.9867037,9.65639981 28.2970675,9.56301602 C28.6074313,9.46963224 28.8886785,9.33095759 29.1408092,9.14699208 C29.3929399,8.96302657 29.6065352,8.73664162 29.7815951,8.46783725 C29.956655,8.19903287 30.078975,7.890625 30.1485551,7.54261364 L31.8063254,7.54685835 C31.7196555,8.08524392 31.5488403,8.57832475 31.2938798,9.02610085 C31.0389193,9.47387695 30.7141707,9.86095082 30.3196339,10.1873224 C29.9250971,10.5136941 29.4735618,10.7652976 28.9650279,10.9421331 C28.4564941,11.1189686 27.9021562,11.2073864 27.3020141,11.2073864 C26.3574119,11.2073864 25.5159729,10.9825967 24.7776972,10.5330172 C24.0394215,10.0834378 23.4581032,9.4399747 23.0337424,8.60262784 C22.6093816,7.76528098 22.3972012,6.7656361 22.3972012,5.60369318 C22.3972012,4.4403631 22.6102694,3.4401911 23.0364058,2.60317716 C23.4625421,1.76616322 24.0449285,1.12304688 24.7835649,0.673828125 C25.5222012,0.224609375 26.3616843,0 27.3020141,0 C27.880128,0 28.4209689,0.0827442516 28.9245367,0.248232755 C29.4281044,0.413721258 29.8798201,0.655378862 30.2796836,0.973205566 C30.6795471,1.29103227 31.0112177,1.6779258 31.2746953,2.13388616 C31.538173,2.58984652 31.715383,3.11007413 31.8063254,3.69456898 Z" id="Path"></path>
            <path d="M40.9977104,0.149147727 L42.646908,0.149147727 L42.646908,7.32530074 C42.646908,8.08807373 42.4673953,8.76367742 42.1083699,9.35211182 C41.7493444,9.94054621 41.2449027,10.4018333 40.5950448,10.735973 C39.9451868,11.0701127 39.1845501,11.2371826 38.3131345,11.2371826 C37.4402208,11.2371826 36.678835,11.0701127 36.028977,10.735973 C35.3791191,10.4018333 34.875038,9.94054621 34.5167339,9.35211182 C34.1584298,8.76367742 33.9792777,8.08807373 33.9792777,7.32530074 L33.9792777,0.149147727 L35.6284754,0.149147727 L35.6284754,7.18888716 C35.6284754,7.68249512 35.7371319,8.12124079 35.9544448,8.50512418 C36.1717577,8.88900757 36.480873,9.19032704 36.8817907,9.40908259 C37.2827085,9.62783813 37.7598231,9.73721591 38.3131345,9.73721591 C38.8671118,9.73721591 39.3450864,9.62783813 39.7470584,9.40908259 C40.1490304,9.19032704 40.4579654,8.88900757 40.6738634,8.50512418 C40.8897614,8.12124079 40.9977104,7.68249512 40.9977104,7.18888716 L40.9977104,0.149147727 Z" id="Path"></path>
            <polygon id="Path" points="45.2417741 0.149147727 47.2403703 0.149147727 50.7133817 8.62926136 50.8412226 8.62926136 54.3142339 0.149147727 56.3128301 0.149147727 56.3128301 11.0582386 54.744615 11.0582386 54.744615 3.16622647 54.6423256 3.16622647 51.429324 11.0411765 50.1252802 11.0411765 46.9122786 3.15765381 46.8099892 3.15765381 46.8099892 11.0582386 45.2417741 11.0582386"></polygon>
            <polygon id="Path" points="58.907691 11.0582386 58.907691 0.149147727 65.7471796 0.149147727 65.7471796 1.56397039 60.5568887 1.56397039 60.5568887 4.8877508 65.3935364 4.8877508 65.3935364 6.30257346 60.5568887 6.30257346 60.5568887 9.64341597 65.8111001 9.64341597 65.8111001 11.0582386"></polygon>
            <polygon id="Path" points="76.9585976 0.149147727 76.9585976 11.0582386 75.4414856 11.0582386 69.8974682 3.05969238 69.7995067 3.05969238 69.7995067 11.0582386 68.1503091 11.0582386 68.1503091 0.149147727 69.6759105 0.149147727 75.2241727 8.16051136 75.3264621 8.16051136 75.3264621 0.149147727"></polygon>
            <polygon id="Path" points="79.0165134 1.56397039 79.0165134 0.149147727 87.4582581 0.149147727 87.4582581 1.56397039 84.0577399 1.56397039 84.0577399 11.0582386 82.4171149 11.0582386 82.4171149 1.56397039"></polygon>
            <path d="M89.1412694,11.0582386 L87.3941103,11.0582386 L91.3188096,0.149147727 L93.2193611,0.149147727 L97.1440604,11.0582386 L95.3969013,11.0582386 L92.3117406,2.13068182 L92.2265133,2.13068182 L89.1412694,11.0582386 Z M89.4309922,6.78838556 L95.0986058,6.78838556 L95.0986058,8.16908403 L89.4309922,8.16908403 L89.4309922,6.78838556 Z" id="Shape"></path>
            <polygon id="Path" points="97.079893 1.56397039 97.079893 0.149147727 105.521638 0.149147727 105.521638 1.56397039 102.121119 1.56397039 102.121119 11.0582386 100.480494 11.0582386 100.480494 1.56397039"></polygon>
            <polygon id="Path" points="109.228798 0.149147727 109.228798 11.0582386 107.5796 11.0582386 107.5796 0.149147727"></polygon>
            <path d="M121.300929,5.60369318 C121.300929,6.76702326 121.0875,7.76719527 120.660642,8.60420921 C120.233785,9.44122314 119.65033,10.0843395 118.910279,10.5335582 C118.170228,10.982777 117.329316,11.2073864 116.387543,11.2073864 C115.444384,11.2073864 114.602958,10.9824163 113.863268,10.5324763 C113.123577,10.0825362 112.540483,9.43907304 112.113986,8.60208685 C111.687489,7.76510065 111.474241,6.7656361 111.474241,5.60369318 C111.474241,4.4403631 111.687489,3.4401911 112.113986,2.60317716 C112.540483,1.76616322 113.123577,1.12304688 113.863268,0.673828125 C114.602958,0.224609375 115.444384,0 116.387543,0 C117.329316,0 118.170228,0.224609375 118.910279,0.673828125 C119.65033,1.12304688 120.233785,1.76616322 120.660642,2.60317716 C121.0875,3.4401911 121.300929,4.4403631 121.300929,5.60369318 Z M119.668793,5.60369318 C119.668793,4.71735174 119.52586,3.96931041 119.239993,3.3595692 C118.954127,2.74982799 118.563863,2.28818026 118.0692,1.97462602 C117.574538,1.66107178 117.013986,1.50429466 116.387543,1.50429466 C115.761156,1.50429466 115.200631,1.66107178 114.705969,1.97462602 C114.211307,2.28818026 113.821043,2.74982799 113.535176,3.3595692 C113.24931,3.96931041 113.106376,4.71735174 113.106376,5.60369318 C113.106376,6.49003462 113.24931,7.23807595 113.535176,7.84781716 C113.821043,8.45755837 114.211307,8.9192061 114.705969,9.23276034 C115.200631,9.54631459 115.761156,9.70309171 116.387543,9.70309171 C117.013986,9.70309171 117.574538,9.54631459 118.0692,9.23276034 C118.563863,8.9192061 118.954127,8.45755837 119.239993,7.84781716 C119.52586,7.23807595 119.668793,6.49003462 119.668793,5.60369318 Z" id="Shape"></path>
            <polygon id="Path" points="132.354661 0.149147727 132.354661 11.0582386 130.837549 11.0582386 125.293532 3.05969238 125.195571 3.05969238 125.195571 11.0582386 123.546373 11.0582386 123.546373 0.149147727 125.071974 0.149147727 130.620237 8.16051136 130.722526 8.16051136 130.722526 0.149147727"></polygon>
        </g>
    </g>
</svg>