<?xml version="1.0" encoding="UTF-8"?>
<svg width="313px" height="42px" viewBox="0 0 313 42" version="1.1" xmlns="http://www.w3.org/2000/svg" xmlns:xlink="http://www.w3.org/1999/xlink">
    <title>logo-swan</title>
    <g id="logo-swan" stroke="none" stroke-width="1" fill="none" fill-rule="evenodd">
        <g id="Swan-Logo" transform="translate(0, 0)" fill="#26232F">
            <path d="M0.0907507,29.1095 C0.823749,37.0301 6.66053,42 15.8149,42 C25.1502,42 31.5429,36.7911 31.5429,29.0263 C31.5429,21.7605 27.6344,18.8153 19.3707,17.129 C19.1826,17.0906 19.0728,17.0679 18.963,17.0457 C18.6853,16.9898 18.4068,16.9375 16.8599,16.6458 C10.5841,15.4624 8.62815,14.4414 8.62815,11.5746 C8.62815,8.78198 11.3275,6.80213 15.5946,6.80213 C20.018,6.80213 22.5358,8.73742 23.0106,12.0701 L23.1204,12.8403 L30.4472,12.8403 L30.3645,11.8665 C29.7561,4.69902 23.7497,0 15.9618,0 C7.37524,0 1.26202,4.63701 1.26202,11.5746 C1.26202,18.5422 5.006,21.2257 13.3929,22.9831 C13.5278,23.0114 13.5974,23.0262 13.667,23.0407 C13.8398,23.0768 14.0129,23.1116 15.1836,23.3476 C21.9856,24.7192 24.1033,25.8921 24.1033,29.3208 C24.1033,32.8272 21.1907,35.1242 16.1087,35.1242 C10.9656,35.1242 8.11234,33.0077 7.51717,28.8969 L7.40596,28.1288 L0,28.1288 L0.0907507,29.1095 Z M119.799,40.8688 L126.317,40.8688 L126.317,33.7563 L119.799,33.7563 C113.072,33.7563 108.09,27.6631 108.09,20.4439 C108.09,13.3158 113.52,7.11251 120.809,7.11251 C129.207,7.11251 134.154,11.4601 134.154,18.6876 L134.154,41.0181 L141.251,41.0181 L141.251,18.6876 C141.251,7.30902 132.935,0 120.809,0 C109.379,0 100.993,9.5796 100.993,20.4439 C100.993,31.3136 108.806,40.8688 119.799,40.8688 Z M184,16.0575 C184,6.75764 177.923,0 168.824,0 C164.008,0 159.944,1.96682 157.571,5.01223 L157.571,1.12 L149.967,1.12 L149.967,41.02 L157.571,41.02 L157.571,17.3086 C157.571,11.5328 161.825,7.23993 167.425,7.23993 C172.526,7.23993 176.668,11.0289 176.668,16.4255 L176.668,41.02 L184,41.02 L184,16.0575 Z M66.6793,11.454 L57.3424,41.02 L48.609,41.02 L36.2466,1.12 L44.3826,1.12 L53.1519,31.2113 L62.7562,1.12 L70.6084,1.12 L80.1432,31.2114 L88.982,1.12 L97.1188,1.12 L84.6801,41.02 L75.9465,41.02 L66.6793,11.454 Z" id="Shape"></path>
        </g>
        <rect id="Rectangle" fill="#E0D9F0" x="194" y="0" width="119" height="42" rx="8"></rect>
        <g id="DOCS" transform="translate(209.9609, 8.6719)" fill="#6240B5" fill-rule="nonzero">
            <path d="M7.40625,24.328125 L0,24.328125 L0,0.328125 L7.734375,0.328125 C10.0625,0.328125 12.0546875,0.806640625 13.7109375,1.76367188 C15.3671875,2.72070312 16.6367188,4.09179688 17.5195312,5.87695312 C18.4023438,7.66210938 18.84375,9.796875 18.84375,12.28125 C18.84375,14.78125 18.3984375,16.9316406 17.5078125,18.7324219 C16.6171875,20.5332031 15.3203125,21.9160156 13.6171875,22.8808594 C11.9140625,23.8457031 9.84375,24.328125 7.40625,24.328125 Z M2.90625,21.75 L7.21875,21.75 C9.203125,21.75 10.8476562,21.3671875 12.1523438,20.6015625 C13.4570312,19.8359375 14.4296875,18.7460938 15.0703125,17.3320312 C15.7109375,15.9179688 16.03125,14.234375 16.03125,12.28125 C16.03125,10.34375 15.7148438,8.67382812 15.0820312,7.27148438 C14.4492188,5.86914062 13.5039062,4.79101562 12.2460938,4.03710938 C10.9882812,3.28320312 9.421875,2.90625 7.546875,2.90625 L2.90625,2.90625 L2.90625,21.75 Z" id="Shape"></path>
            <path d="M43.96875,12.328125 C43.96875,14.859375 43.5117188,17.046875 42.5976562,18.890625 C41.6835938,20.734375 40.4296875,22.15625 38.8359375,23.15625 C37.2421875,24.15625 35.421875,24.65625 33.375,24.65625 C31.328125,24.65625 29.5078125,24.15625 27.9140625,23.15625 C26.3203125,22.15625 25.0664062,20.734375 24.1523438,18.890625 C23.2382812,17.046875 22.78125,14.859375 22.78125,12.328125 C22.78125,9.796875 23.2382812,7.609375 24.1523438,5.765625 C25.0664062,3.921875 26.3203125,2.5 27.9140625,1.5 C29.5078125,0.5 31.328125,0 33.375,0 C35.421875,0 37.2421875,0.5 38.8359375,1.5 C40.4296875,2.5 41.6835938,3.921875 42.5976562,5.765625 C43.5117188,7.609375 43.96875,9.796875 43.96875,12.328125 Z M41.15625,12.328125 C41.15625,10.25 40.8105469,8.49609375 40.1191406,7.06640625 C39.4277344,5.63671875 38.4941406,4.5546875 37.3183594,3.8203125 C36.1425781,3.0859375 34.828125,2.71875 33.375,2.71875 C31.921875,2.71875 30.6074219,3.0859375 29.4316406,3.8203125 C28.2558594,4.5546875 27.3222656,5.63671875 26.6308594,7.06640625 C25.9394531,8.49609375 25.59375,10.25 25.59375,12.328125 C25.59375,14.40625 25.9394531,16.1601562 26.6308594,17.5898438 C27.3222656,19.0195312 28.2558594,20.1015625 29.4316406,20.8359375 C30.6074219,21.5703125 31.921875,21.9375 33.375,21.9375 C34.828125,21.9375 36.1425781,21.5703125 37.3183594,20.8359375 C38.4941406,20.1015625 39.4277344,19.0195312 40.1191406,17.5898438 C40.8105469,16.1601562 41.15625,14.40625 41.15625,12.328125 Z" id="Shape"></path>
            <path d="M68.15625,7.828125 L65.25,7.828125 C65.078125,6.9921875 64.7792969,6.2578125 64.3535156,5.625 C63.9277344,4.9921875 63.4121094,4.45898438 62.8066406,4.02539062 C62.2011719,3.59179688 61.53125,3.265625 60.796875,3.046875 C60.0625,2.828125 59.296875,2.71875 58.5,2.71875 C57.046875,2.71875 55.7324219,3.0859375 54.5566406,3.8203125 C53.3808594,4.5546875 52.4472656,5.63671875 51.7558594,7.06640625 C51.0644531,8.49609375 50.71875,10.25 50.71875,12.328125 C50.71875,14.40625 51.0644531,16.1601562 51.7558594,17.5898438 C52.4472656,19.0195312 53.3808594,20.1015625 54.5566406,20.8359375 C55.7324219,21.5703125 57.046875,21.9375 58.5,21.9375 C59.296875,21.9375 60.0625,21.828125 60.796875,21.609375 C61.53125,21.390625 62.2011719,21.0644531 62.8066406,20.6308594 C63.4121094,20.1972656 63.9277344,19.6621094 64.3535156,19.0253906 C64.7792969,18.3886719 65.078125,17.65625 65.25,16.828125 L68.15625,16.828125 C67.9375,18.0546875 67.5390625,19.1523438 66.9609375,20.1210938 C66.3828125,21.0898438 65.6640625,21.9121094 64.8046875,22.5878906 C63.9453125,23.2636719 62.9824219,23.7773438 61.9160156,24.1289062 C60.8496094,24.4804688 59.7109375,24.65625 58.5,24.65625 C56.453125,24.65625 54.6328125,24.15625 53.0390625,23.15625 C51.4453125,22.15625 50.1914062,20.734375 49.2773438,18.890625 C48.3632812,17.046875 47.90625,14.859375 47.90625,12.328125 C47.90625,9.796875 48.3632812,7.609375 49.2773438,5.765625 C50.1914062,3.921875 51.4453125,2.5 53.0390625,1.5 C54.6328125,0.5 56.453125,0 58.5,0 C59.7109375,0 60.8496094,0.17578125 61.9160156,0.52734375 C62.9824219,0.87890625 63.9453125,1.39257812 64.8046875,2.06835938 C65.6640625,2.74414062 66.3828125,3.56445312 66.9609375,4.52929688 C67.5390625,5.49414062 67.9375,6.59375 68.15625,7.828125 Z" id="Path"></path>
            <path d="M85.96875,6.328125 C85.828125,5.140625 85.2578125,4.21875 84.2578125,3.5625 C83.2578125,2.90625 82.03125,2.578125 80.578125,2.578125 C79.515625,2.578125 78.5878906,2.75 77.7949219,3.09375 C77.0019531,3.4375 76.3847656,3.91015625 75.9433594,4.51171875 C75.5019531,5.11328125 75.28125,5.796875 75.28125,6.5625 C75.28125,7.203125 75.4355469,7.75195313 75.7441406,8.20898438 C76.0527344,8.66601562 76.4492188,9.04492188 76.9335938,9.34570312 C77.4179688,9.64648438 77.9257812,9.89257812 78.4570312,10.0839844 C78.9882812,10.2753906 79.4765625,10.4296875 79.921875,10.546875 L82.359375,11.203125 C82.984375,11.3671875 83.6816406,11.59375 84.4511719,11.8828125 C85.2207031,12.171875 85.9589844,12.5644531 86.6660156,13.0605469 C87.3730469,13.5566406 87.9570312,14.1914062 88.4179688,14.9648438 C88.8789062,15.7382812 89.109375,16.6875 89.109375,17.8125 C89.109375,19.109375 88.7714844,20.28125 88.0957031,21.328125 C87.4199219,22.375 86.4355469,23.2070312 85.1425781,23.8242188 C83.8496094,24.4414062 82.28125,24.75 80.4375,24.75 C78.71875,24.75 77.2324219,24.4726562 75.9785156,23.9179688 C74.7246094,23.3632812 73.7402344,22.5898438 73.0253906,21.5976562 C72.3105469,20.6054688 71.90625,19.453125 71.8125,18.140625 L74.8125,18.140625 C74.890625,19.046875 75.1972656,19.7949219 75.7324219,20.3847656 C76.2675781,20.9746094 76.9472656,21.4121094 77.7714844,21.6972656 C78.5957031,21.9824219 79.484375,22.125 80.4375,22.125 C81.546875,22.125 82.5429688,21.9433594 83.4257812,21.5800781 C84.3085938,21.2167969 85.0078125,20.7089844 85.5234375,20.0566406 C86.0390625,19.4042969 86.296875,18.640625 86.296875,17.765625 C86.296875,16.96875 86.0742188,16.3203125 85.6289062,15.8203125 C85.1835938,15.3203125 84.5976562,14.9140625 83.8710938,14.6015625 C83.1445312,14.2890625 82.359375,14.015625 81.515625,13.78125 L78.5625,12.9375 C76.6875,12.3984375 75.203125,11.6289062 74.109375,10.6289062 C73.015625,9.62890625 72.46875,8.3203125 72.46875,6.703125 C72.46875,5.359375 72.8339844,4.18554688 73.5644531,3.18164062 C74.2949219,2.17773438 75.2792969,1.39648438 76.5175781,0.837890625 C77.7558594,0.279296875 79.140625,0 80.671875,0 C82.21875,0 83.59375,0.275390625 84.796875,0.826171875 C86,1.37695312 86.9550781,2.12890625 87.6621094,3.08203125 C88.3691406,4.03515625 88.7421875,5.1171875 88.78125,6.328125 L85.96875,6.328125 Z" id="Path"></path>
        </g>
    </g>
</svg>